<svg width="17" height="12" viewBox="0 0 17 12" fill="none" xmlns="http://www.w3.org/2000/svg">
<path d="M6.7998 4.90027L1.09985 0.300262C1.39985 0.100262 1.79983 0.000244141 2.19983 0.000244141H14.6998C15.0998 0.000244141 15.4998 0.100262 15.7998 0.300262L10.0999 4.90027C9.19985 5.70027 7.7998 5.70027 6.7998 4.90027Z" fill="white"/>
<path d="M16.7998 2.00037V10.0004C16.7998 11.1004 15.8998 12.0004 14.7998 12.0004H2.2998C1.1998 12.0004 0.299805 11.1004 0.299805 10.0004V2.00037C0.299805 1.60037 0.399854 1.20039 0.599854 0.900391L6.2998 5.50037C6.8998 6.00037 7.69982 6.30038 8.49982 6.30038C9.29982 6.30038 9.99983 6.00037 10.6998 5.50037L16.3998 0.900391C16.5998 1.20039 16.7998 1.60037 16.7998 2.00037Z" fill="white"/>
</svg>
