<svg width="19" height="18" viewBox="0 0 19 18" fill="none" xmlns="http://www.w3.org/2000/svg">
<path d="M7.81926 7.53484C7.72811 7.32162 7.66285 7.13518 7.61809 6.99176L8.60679 5.01431C8.89596 4.43601 8.88112 3.75236 8.56739 3.1872L7.36913 1.02871C7.02367 0.40651 6.36796 0.0205078 5.65623 0.0205078H3.17164C1.2938 0.0205078 -0.168367 1.80004 0.468589 3.68781C1.30646 6.17093 2.94643 10.1818 5.54014 12.7756C8.13386 15.3693 12.1447 17.0093 14.6279 17.8471C16.5157 18.4842 18.2952 17.0219 18.2952 15.1441V12.6591C18.2952 11.9478 17.9097 11.2924 17.288 10.9468L15.1235 9.74333C14.5581 9.429 13.8739 9.41402 13.2952 9.70337L11.3172 10.6924C11.1745 10.6481 10.9891 10.5835 10.777 10.4931C10.2532 10.2699 9.59124 9.89992 9.00349 9.3122C8.41565 8.72435 8.04406 8.06067 7.81926 7.53484Z" fill="white"/>
</svg>
